<?xml version="1.0" encoding="utf-8"?>
<!-- Generator: Adobe Illustrator 16.0.0, SVG Export Plug-In . SVG Version: 6.00 Build 0)  -->
<!DOCTYPE svg PUBLIC "-//W3C//DTD SVG 1.1//EN" "http://www.w3.org/Graphics/SVG/1.1/DTD/svg11.dtd">
<svg version="1.1" id="Layer_1" xmlns="http://www.w3.org/2000/svg" xmlns:xlink="http://www.w3.org/1999/xlink" x="0px" y="0px"
	 width="600px" height="600px" viewBox="0 0 600 600" enable-background="new 0 0 600 600" xml:space="preserve">
<g opacity="0.5">
	<g>
		<path fill="none" stroke="#021223" stroke-width="4" stroke-linecap="round" stroke-linejoin="round" stroke-miterlimit="10" d="
			M395.097,17.704c-28.737-20.878-115.536-7.129-136.408,21.611c-20.883,28.733-7.133,115.534,21.607,136.408
			c28.735,20.88,115.535,7.128,136.41-21.603C437.585,125.377,423.835,38.578,395.097,17.704z"/>
		<path fill="none" stroke="#021223" stroke-width="4" stroke-linecap="round" stroke-linejoin="round" stroke-miterlimit="10" d="
			M327.911,34.938c-27.059,4.286-44.776,13.852-48.713,19.272c-3.944,5.428-7.562,25.23-3.275,52.288
			c4.286,27.06,13.848,44.775,19.271,48.713c5.424,3.943,25.232,7.564,52.294,3.276c27.056-4.285,44.771-13.848,48.714-19.268
			c3.938-5.421,7.557-25.231,3.269-52.293c-4.286-27.058-13.85-44.775-19.27-48.712C374.776,34.272,354.969,30.651,327.911,34.938z"
			/>
	</g>
	
		<polyline fill="none" stroke="#021223" stroke-width="4" stroke-linecap="round" stroke-linejoin="round" stroke-miterlimit="10" points="
		416.003,160.082 453.067,394.051 319.869,415.15 282.804,181.181 	"/>
	<path fill="none" stroke="#021223" stroke-width="4" stroke-linecap="round" stroke-linejoin="round" stroke-miterlimit="10" d="
		M453.067,394.051c2.204,13.915,15.271,23.406,29.187,21.204c13.911-2.207,23.406-15.268,21.201-29.188l-29.082-183.582
		c-4.41-27.828-30.542-46.813-58.37-42.404L453.067,394.051z"/>
	<path fill="none" stroke="#021223" stroke-width="4" stroke-linecap="round" stroke-linejoin="round" stroke-miterlimit="10" d="
		M421.655,562.521c2.48,15.649,17.178,26.326,32.828,23.848c15.649-2.479,26.329-17.177,23.85-32.826l-25.266-159.492l-56.679,8.977
		L421.655,562.521z"/>
	<path fill="none" stroke="#021223" stroke-width="4" stroke-linecap="round" stroke-linejoin="round" stroke-miterlimit="10" d="
		M319.835,415.154c2.203,13.918-7.29,26.982-21.203,29.188c-13.913,2.203-26.98-7.288-29.184-21.201l-29.082-183.586
		c-4.409-27.826,14.575-53.961,42.402-58.367L319.835,415.154z"/>
	<path fill="none" stroke="#021223" stroke-width="4" stroke-linecap="round" stroke-linejoin="round" stroke-miterlimit="10" d="
		M401.779,565.672c2.479,15.647-8.201,30.345-23.853,32.826c-15.648,2.477-30.349-8.202-32.827-23.848l-25.265-159.496l56.679-8.976
		L401.779,565.672z"/>
	
		<rect x="324.353" y="248.985" transform="matrix(0.9877 -0.1564 0.1564 0.9877 -38.4775 60.6237)" fill="none" stroke="#021223" stroke-width="4" stroke-linecap="round" stroke-linejoin="round" stroke-miterlimit="10" width="83.093" height="51.543"/>
	<path fill="none" stroke="#021223" stroke-width="4" stroke-linecap="round" stroke-linejoin="round" stroke-miterlimit="10" d="
		M425.949,125.779c19.961-3.162,37.948,10.58,41.113,30.543l7.769,49.063"/>
	<path fill="none" stroke="#021223" stroke-width="4" stroke-linecap="round" stroke-linejoin="round" stroke-miterlimit="10" d="
		M262.708,151.639c-19.96,3.162-32.818,21.789-29.656,41.753l7.771,49.065"/>
	<path fill="none" stroke="#021223" stroke-width="4" stroke-linecap="round" stroke-linejoin="round" stroke-miterlimit="10" d="
		M452.923,132.471l-2.775-17.526c-2.709-17.091,8.953-33.144,26.048-35.852c17.091-2.707,33.147,8.955,35.855,26.046l18.603,117.424
		c2.708,17.096,18.762,28.757,35.853,26.049c17.096-2.707,28.756-18.761,26.048-35.853L573.949,95.334
		C571.244,78.242,582.905,62.189,600,59.48"/>
</g>
</svg>
