<svg xmlns="http://www.w3.org/2000/svg" viewBox="0 0 720 426"><filter id="a"><feGaussianBlur stdDeviation="12"/></filter><path fill="#161716" d="M0 0h720v424H0z"/><g filter="url(#a)" transform="translate(1.4 1.4) scale(2.8125)" fill-opacity=".5"><ellipse fill="#909090" cx="113" cy="72" rx="177" ry="8"/><path d="M59.5 51l43.4 83.3-19.6-69.6-99.3-7.5z"/><path fill="#060707" d="M160 7.1l-6.7 79.3L35 77.8l98.3 84.4z"/><path fill="#d8dada" d="M5.7 75.3l1.9-8.8 10.7 2.2-1.9 8.8z"/><ellipse fill="#0a0b0a" cx="174" cy="108" rx="255" ry="30"/><path fill="#000102" d="M255-16l1 107-30-78z"/><path fill="#080808" d="M-16 13.9L185.4 55l20.4 28.5-9-99.5z"/><path fill="#7a7061" d="M86 158l-8-31 11-6z"/></g></svg>