<svg xmlns="http://www.w3.org/2000/svg" viewBox="0 0 1365 602"><filter id="a"><feGaussianBlur stdDeviation="12"/></filter><path fill="#141414" d="M0 0h1365v597H0z"/><g filter="url(#a)" transform="translate(2.7 2.7) scale(5.33203)" fill-opacity=".5"><path fill="#82888b" d="M35 48h181v10H35z"/><path fill="#020303" d="M108.7 103.6l-26-54.7L23.8-16l71.7 67z"/><path fill="#988f85" d="M97 113l-6.9-18 5 1.8 2 8z"/><path fill="#080a09" d="M205.4 34.3v32.8L-1.6 59l227 67.9z"/><path fill="#fff" d="M213.5 54.2l.7-.7 4.3 4.3-.7.7z"/><ellipse fill="#5f6263" cx="123" cy="58" rx="87" ry="1"/><path d="M184 43l-13-8 13 23z"/><path fill="#090a09" d="M180.8 34.4L164.7 73l14.7-89L-16 16.7z"/></g></svg>