<?xml version="1.0" encoding="utf-8"?>
<!-- Generator: Adobe Illustrator 16.0.0, SVG Export Plug-In . SVG Version: 6.00 Build 0)  -->
<!DOCTYPE svg PUBLIC "-//W3C//DTD SVG 1.1//EN" "http://www.w3.org/Graphics/SVG/1.1/DTD/svg11.dtd">
<svg version="1.1" id="Layer_1" xmlns="http://www.w3.org/2000/svg" xmlns:xlink="http://www.w3.org/1999/xlink" x="0px" y="0px"
	 width="600px" height="600px" viewBox="0 0 600 600" enable-background="new 0 0 600 600" xml:space="preserve">
<g opacity="0.5">
	<g>
		<path fill="#1A1A1A" d="M299.999,5.001c39.827,0,78.46,7.799,114.826,23.181c35.128,14.858,66.677,36.129,93.771,63.223
			c27.095,27.094,48.365,58.643,63.224,93.771C587.201,221.542,595,260.174,595,300c0,39.827-7.799,78.46-23.181,114.826
			c-14.858,35.128-36.129,66.677-63.224,93.771c-27.094,27.094-58.643,48.364-93.771,63.222
			c-36.366,15.382-74.999,23.181-114.826,23.181c-39.827,0-78.459-7.799-114.825-23.181c-35.128-14.857-66.677-36.128-93.771-63.222
			c-27.094-27.094-48.365-58.643-63.223-93.771C12.799,378.46,5,339.827,5,300c0-39.826,7.799-78.458,23.181-114.824
			C43.039,150.048,64.31,118.5,91.404,91.405c27.094-27.094,58.643-48.365,93.771-63.223C221.54,12.8,260.173,5.001,299.999,5.001
			 M299.999,0.001C134.315,0.001,0,134.318,0,300c0,165.687,134.315,299.999,299.999,299.999C465.685,599.999,600,465.687,600,300
			C600,134.318,465.685,0.001,299.999,0.001L299.999,0.001z"/>
	</g>
	<g>
		<path fill="#1A1A1A" d="M305.859,305c38.367,0,69.581,31.214,69.581,69.581c0,38.365-31.214,69.577-69.581,69.577
			c-38.366,0-69.579-31.212-69.579-69.577C236.28,336.214,267.493,305,305.859,305 M305.859,300
			c-41.187,0-74.579,33.394-74.579,74.581s33.393,74.577,74.579,74.577c41.192,0,74.581-33.39,74.581-74.577
			S347.052,300,305.859,300L305.859,300z"/>
	</g>
	<g>
		<path fill="#1A1A1A" d="M113.102,362.88c8.155,0,17.115,3.495,25.231,9.842c8.666,6.776,15.902,16.262,20.927,27.434
			c6.2,13.753,8.246,28.319,5.762,41.017c-2.361,12.067-8.557,20.918-17.447,24.922c-3.397,1.529-7.087,2.306-10.969,2.306
			c-8.154,0-17.115-3.495-25.232-9.842c-8.667-6.776-15.904-16.262-20.929-27.432c-6.196-13.757-8.24-28.326-5.755-41.022
			c2.361-12.065,8.557-20.917,17.442-24.921c3.395-1.527,7.084-2.302,10.968-2.303H113.102 M113.097,357.88
			c-4.493,0.001-8.886,0.885-13.016,2.743c-21.518,9.696-27.879,42.173-14.195,72.557c11.046,24.553,31.803,40.22,50.72,40.22
			c4.496,0,8.89-0.886,13.022-2.747c21.521-9.691,27.883-42.179,14.19-72.552C152.773,373.543,132.017,357.878,113.097,357.88
			L113.097,357.88z"/>
	</g>
	<g>
		<path fill="#1A1A1A" d="M310.887,77.069c23.125,0,44.785,4.921,60.993,13.857c15.268,8.418,23.676,19.28,23.676,30.586
			c0,11.3-8.408,22.159-23.676,30.577c-16.21,8.937-37.871,13.859-60.993,13.859c-23.12,0-44.778-4.922-60.987-13.859
			c-15.267-8.418-23.675-19.277-23.675-30.577c0-11.306,8.408-22.168,23.675-30.586C266.106,81.99,287.765,77.069,310.887,77.069
			 M310.887,72.069c-49.52,0-89.662,22.128-89.662,49.443c0,27.301,40.142,49.436,89.662,49.436
			c49.526,0,89.669-22.135,89.669-49.436C400.556,94.197,360.413,72.069,310.887,72.069L310.887,72.069z"/>
	</g>
	<g>
		<path fill="#1A1A1A" d="M486.431,210.723v5c15.353,0,31.982,17.809,38.684,41.427c3.839,13.515,4.092,27.101,0.714,38.255
			c-3.142,10.374-9.038,17.268-16.604,19.414c-1.657,0.47-3.387,0.709-5.14,0.709c-15.344,0-31.976-17.809-38.685-41.422
			c-3.834-13.52-4.086-27.108-0.71-38.263c3.139-10.373,9.03-17.265,16.591-19.409c1.659-0.472,3.392-0.711,5.148-0.711
			L486.431,210.723 M486.429,210.723c-2.196,0-4.377,0.294-6.516,0.902c-19.134,5.426-27.784,34.013-19.324,63.846
			c7.531,26.504,26.036,45.058,43.495,45.058c2.192,0,4.369-0.293,6.505-0.899c19.147-5.429,27.807-34.02,19.335-63.845
			C522.404,229.281,503.894,210.722,486.429,210.723L486.429,210.723z"/>
	</g>
	<g>
		<path fill="#1A1A1A" d="M463.746,428.534v5c2.915,0,5.423,0.809,7.457,2.406c3.069,2.405,4.704,6.414,4.605,11.287
			c-0.109,5.409-2.296,11.099-6.158,16.023c-5.044,6.437-12.199,10.435-18.674,10.435c-2.921,0-5.436-0.811-7.471-2.405
			c-6.662-5.229-5.946-17.73,1.565-27.302c5.045-6.441,12.2-10.443,18.674-10.444L463.746,428.534 M463.745,428.534
			c-7.732,0.001-16.391,4.42-22.61,12.361c-9.356,11.922-9.666,27.292-0.716,34.317c3.002,2.354,6.663,3.473,10.558,3.473
			c7.737,0,16.393-4.419,22.609-12.351c9.358-11.934,9.666-27.305,0.701-34.33C471.292,429.653,467.636,428.534,463.745,428.534
			L463.745,428.534z"/>
	</g>
	<g>
		<path fill="#1A1A1A" d="M115.48,175.527c2.505,0,4.727,0.65,6.611,1.936c3.224,2.192,5.125,6.08,5.354,10.949
			c0.255,5.404-1.544,11.229-5.065,16.403c-4.838,7.108-12.268,11.701-18.926,11.701c-2.507,0-4.732-0.65-6.614-1.933
			c-3.219-2.193-5.117-6.083-5.345-10.953c-0.253-5.404,1.545-11.222,5.07-16.391C101.398,180.124,108.823,175.527,115.48,175.527
			 M115.48,170.527c-8.071,0-17.054,5.075-23.051,13.902c-8.536,12.519-7.805,27.879,1.595,34.285
			c2.789,1.901,6.028,2.801,9.43,2.801c8.077,0,17.063-5.078,23.06-13.887c8.536-12.541,7.806-27.897-1.611-34.3
			C122.118,171.428,118.88,170.527,115.48,170.527L115.48,170.527z"/>
	</g>
</g>
</svg>
