<?xml version="1.0" encoding="utf-8"?>
<!-- Generator: Adobe Illustrator 16.0.0, SVG Export Plug-In . SVG Version: 6.00 Build 0)  -->
<!DOCTYPE svg PUBLIC "-//W3C//DTD SVG 1.1//EN" "http://www.w3.org/Graphics/SVG/1.1/DTD/svg11.dtd">
<svg version="1.1" id="Layer_1" xmlns="http://www.w3.org/2000/svg" xmlns:xlink="http://www.w3.org/1999/xlink" x="0px" y="0px"
	 width="800px" height="800.005px" viewBox="0 0 800 800.005" enable-background="new 0 0 800 800.005" xml:space="preserve">
<g opacity="0.5">
	<g>
		<g>
			<path fill="#FFFFFF" d="M439.314,559.631c35.186-35.188,70.371-70.377,105.557-105.564c4.917-4.918,9.835-9.836,14.752-14.754
				c0.963-0.963,0.963-2.572,0-3.535c-30.802-30.802-61.604-61.603-92.405-92.404c-34.082-34.082-68.164-68.164-102.247-102.246
				c-0.249-0.249-0.498-0.498-0.748-0.747c-0.963-0.963-2.572-0.963-3.535,0c-35.185,35.186-70.37,70.372-105.555,105.558
				c-4.917,4.918-9.835,9.835-14.752,14.753c-0.963,0.963-0.963,2.572,0,3.535c30.801,30.803,61.603,61.605,92.404,92.407
				c34.082,34.083,68.165,68.167,102.246,102.25c0.25,0.249,0.499,0.498,0.748,0.747c2.281,2.282,5.817-1.254,3.535-3.535
				c-30.801-30.803-61.603-61.605-92.404-92.407c-34.082-34.083-68.164-68.167-102.246-102.25c-0.249-0.249-0.498-0.498-0.748-0.747
				c0,1.178,0,2.357,0,3.535c35.185-35.186,70.37-70.372,105.555-105.559c4.917-4.917,9.835-9.835,14.752-14.752
				c-1.178,0-2.357,0-3.535,0c30.802,30.801,61.604,61.603,92.405,92.404c34.082,34.082,68.164,68.164,102.246,102.246
				c0.25,0.249,0.499,0.498,0.748,0.747c0-1.179,0-2.356,0-3.535c-35.186,35.188-70.371,70.377-105.557,105.564
				c-4.917,4.918-9.835,9.836-14.752,14.754C433.497,558.377,437.033,561.913,439.314,559.631z"/>
		</g>
	</g>
	<g>
		<g>
			<g>
				<path fill="#FFFFFF" d="M353.01,541.482c-26.118,26.117-52.236,52.235-78.354,78.354
					c-44.517,44.517-89.033,89.033-133.55,133.55c-14.951,14.95-29.902,29.901-44.853,44.853c1.178,0,2.357,0,3.535,0
					c-32.532-32.534-65.065-65.068-97.598-97.602c-0.141-0.142-0.282-0.283-0.424-0.424c0,1.179,0,2.356,0,3.535
					c26.118-26.117,52.235-52.235,78.352-78.354c44.516-44.517,89.032-89.033,133.547-133.55
					c14.951-14.95,29.901-29.901,44.852-44.853c-1.178,0-2.357,0-3.535,0c32.534,32.534,65.068,65.068,97.603,97.602
					c0.141,0.142,0.282,0.283,0.424,0.424c2.282,2.282,5.817-1.254,3.535-3.535c-32.534-32.534-65.068-65.068-97.603-97.602
					c-0.141-0.142-0.282-0.283-0.424-0.424c-0.963-0.963-2.572-0.963-3.535,0c-26.118,26.117-52.235,52.235-78.352,78.354
					C132.116,566.327,87.6,610.844,43.084,655.36c-14.951,14.95-29.901,29.901-44.852,44.853c-0.963,0.963-0.963,2.572,0,3.535
					c32.532,32.534,65.065,65.068,97.598,97.602c0.141,0.142,0.282,0.283,0.424,0.424c0.963,0.963,2.572,0.963,3.535,0
					c26.118-26.117,52.236-52.235,78.354-78.354c44.517-44.517,89.033-89.033,133.55-133.55
					c14.951-14.95,29.902-29.901,44.853-44.853C358.827,542.736,355.292,539.2,353.01,541.482z"/>
			</g>
		</g>
		<g>
			<g>
				<path fill="#FFFFFF" d="M320.046,508.521c11.361-11.361,22.722-22.724,34.083-34.086c0.963-0.963,0.963-2.572,0-3.535
					c-8.344-8.342-16.688-16.683-25.031-25.023c-0.963-0.963-2.572-0.964-3.535,0c-11.36,11.357-22.72,22.716-34.079,34.074
					c-0.963,0.963-0.963,2.572,0,3.535c8.342,8.346,16.685,16.69,25.027,25.035c2.281,2.282,5.817-1.253,3.535-3.535
					c-8.342-8.346-16.685-16.69-25.027-25.035c0,1.179,0,2.356,0,3.535c11.36-11.357,22.72-22.716,34.079-34.074
					c-1.178,0-2.357,0-3.535,0c8.344,8.342,16.688,16.683,25.031,25.023c0-1.179,0-2.356,0-3.535
					c-11.361,11.361-22.722,22.724-34.083,34.086C314.229,507.268,317.764,510.804,320.046,508.521z"/>
			</g>
		</g>
		<g>
			<g>
				<path fill="#FFFFFF" d="M328.668,565.826c-29.75,29.749-59.5,59.498-89.25,89.248c-37.846,37.845-75.693,75.69-113.539,113.535
					c-1.76,1.76-3.519,3.52-5.279,5.279c1.178,0,2.357,0,3.535,0c-24.561-24.559-49.121-49.117-73.682-73.676
					c0,1.179,0,2.356,0,3.535c29.75-29.749,59.5-59.498,89.25-89.248c37.846-37.845,75.691-75.69,113.537-113.535
					c1.76-1.76,3.52-3.52,5.279-5.279c-1.178,0-2.357,0-3.535,0c24.562,24.559,49.123,49.117,73.685,73.676
					c2.282,2.282,5.817-1.254,3.535-3.535c-24.562-24.559-49.123-49.117-73.685-73.676c-0.963-0.963-2.572-0.963-3.535,0
					c-29.75,29.749-59.5,59.498-89.25,89.248c-37.846,37.845-75.691,75.69-113.537,113.535c-1.76,1.76-3.52,3.52-5.279,5.279
					c-0.963,0.963-0.963,2.572,0,3.535c24.561,24.559,49.121,49.117,73.682,73.676c0.963,0.963,2.572,0.963,3.535,0
					c29.75-29.749,59.5-59.498,89.25-89.248c37.846-37.845,75.693-75.69,113.539-113.535c1.76-1.76,3.519-3.52,5.279-5.279
					C334.485,567.08,330.95,563.544,328.668,565.826z"/>
			</g>
		</g>
		<g>
			<g>
				<path fill="#FFFFFF" d="M150.951,599.719c24.56,24.559,49.12,49.117,73.681,73.676c2.282,2.282,5.817-1.254,3.535-3.535
					c-24.56-24.559-49.12-49.117-73.681-73.676C152.205,593.901,148.669,597.438,150.951,599.719L150.951,599.719z"/>
			</g>
		</g>
		<g>
			<g>
				<path fill="#FFFFFF" d="M202.973,547.701c24.56,24.56,49.12,49.119,73.681,73.678c2.282,2.282,5.817-1.254,3.535-3.535
					c-24.56-24.56-49.12-49.119-73.681-73.678C204.226,541.884,200.69,545.42,202.973,547.701L202.973,547.701z"/>
			</g>
		</g>
		<g>
			<g>
				<path fill="#FFFFFF" d="M98.93,651.732c24.561,24.559,49.122,49.117,73.684,73.676c2.282,2.282,5.817-1.254,3.535-3.535
					c-24.561-24.559-49.122-49.117-73.684-73.676C100.183,645.915,96.647,649.451,98.93,651.732L98.93,651.732z"/>
			</g>
		</g>
	</g>
	<g>
		<g>
			<g>
				<path fill="#FFFFFF" d="M545.015,356.55c26.118-26.118,52.235-52.235,78.353-78.353
					c44.517-44.516,89.032-89.033,133.549-133.549c14.95-14.951,29.901-29.901,44.852-44.853c0.963-0.963,0.963-2.572,0-3.535
					c-32.532-32.535-65.064-65.07-97.598-97.604c-0.141-0.142-0.282-0.283-0.424-0.424c-0.963-0.963-2.572-0.963-3.535,0
					c-26.118,26.117-52.235,52.234-78.354,78.352c-44.517,44.516-89.033,89.032-133.55,133.548
					c-14.951,14.951-29.901,29.901-44.853,44.852c-0.963,0.963-0.963,2.572,0,3.535c32.533,32.536,65.066,65.072,97.601,97.607
					c0.141,0.142,0.282,0.283,0.424,0.424c2.281,2.282,5.817-1.253,3.535-3.535c-32.533-32.536-65.066-65.072-97.601-97.607
					c-0.141-0.142-0.282-0.283-0.424-0.424c0,1.178,0,2.357,0,3.535c26.118-26.117,52.235-52.235,78.354-78.352
					c44.517-44.516,89.033-89.032,133.55-133.548c14.951-14.951,29.901-29.901,44.853-44.852c-1.179,0-2.356,0-3.535,0
					c32.532,32.535,65.064,65.07,97.598,97.604c0.141,0.142,0.282,0.283,0.424,0.424c0-1.178,0-2.357,0-3.535
					c-26.117,26.118-52.235,52.235-78.353,78.353c-44.517,44.516-89.032,89.033-133.548,133.549
					c-14.951,14.951-29.902,29.902-44.853,44.853C539.197,355.297,542.733,358.833,545.015,356.55z"/>
			</g>
		</g>
		<g>
			<g>
				<path fill="#FFFFFF" d="M504.984,316.517c-11.36,11.361-22.721,22.722-34.08,34.083c1.179,0,2.356,0,3.535,0
					c-8.344-8.345-16.688-16.69-25.032-25.035c0,1.178,0,2.357,0,3.535c11.361-11.36,22.722-22.72,34.083-34.08
					c-1.179,0-2.356,0-3.535,0c8.343,8.344,16.686,16.688,25.029,25.031c2.281,2.282,5.817-1.253,3.535-3.535
					c-8.343-8.344-16.686-16.688-25.029-25.031c-0.963-0.963-2.572-0.963-3.535,0c-11.361,11.36-22.723,22.72-34.083,34.08
					c-0.964,0.963-0.963,2.572,0,3.535c8.344,8.345,16.688,16.69,25.032,25.035c0.963,0.963,2.572,0.963,3.535,0
					c11.36-11.361,22.721-22.722,34.08-34.083C510.802,317.771,507.266,314.235,504.984,316.517z"/>
			</g>
		</g>
		<g>
			<g>
				<path fill="#FFFFFF" d="M569.354,332.21c29.751-29.75,59.501-59.5,89.252-89.25c37.847-37.847,75.693-75.693,113.54-113.54
					c1.76-1.76,3.52-3.52,5.279-5.279c0.964-0.963,0.964-2.572,0-3.535c-24.56-24.56-49.119-49.12-73.679-73.68
					c-0.963-0.963-2.572-0.963-3.535,0c-29.751,29.75-59.501,59.5-89.252,89.25c-37.846,37.847-75.692,75.693-113.539,113.539
					c-1.76,1.76-3.52,3.52-5.279,5.279c-0.963,0.963-0.963,2.572,0,3.535c24.559,24.561,49.118,49.121,73.678,73.681
					c2.281,2.282,5.817-1.253,3.535-3.535c-24.559-24.561-49.118-49.121-73.678-73.681c0,1.178,0,2.357,0,3.535
					c29.751-29.75,59.501-59.5,89.252-89.25c37.846-37.847,75.692-75.693,113.539-113.539c1.76-1.76,3.52-3.52,5.279-5.279
					c-1.179,0-2.356,0-3.535,0c24.56,24.56,49.119,49.12,73.679,73.68c0-1.178,0-2.357,0-3.535
					c-29.751,29.75-59.501,59.5-89.252,89.25c-37.847,37.847-75.693,75.693-113.54,113.54c-1.76,1.76-3.52,3.52-5.279,5.279
					C563.536,330.957,567.072,334.492,569.354,332.21z"/>
			</g>
		</g>
		<g>
			<g>
				<path fill="#FFFFFF" d="M596.178,154.49c24.559,24.562,49.117,49.123,73.677,73.684c2.281,2.282,5.817-1.253,3.535-3.535
					c-24.559-24.562-49.118-49.123-73.677-73.684C597.432,148.672,593.896,152.208,596.178,154.49L596.178,154.49z"/>
			</g>
		</g>
		<g>
			<g>
				<path fill="#FFFFFF" d="M544.16,206.504c24.559,24.562,49.117,49.123,73.677,73.684c2.281,2.282,5.817-1.253,3.535-3.535
					c-24.559-24.562-49.118-49.123-73.677-73.684C545.414,200.687,541.878,204.223,544.16,206.504L544.16,206.504z"/>
			</g>
		</g>
		<g>
			<g>
				<path fill="#FFFFFF" d="M648.193,102.475c24.559,24.56,49.118,49.12,73.678,73.68c2.281,2.282,5.817-1.253,3.535-3.535
					c-24.559-24.56-49.118-49.12-73.678-73.68C649.447,96.657,645.911,100.193,648.193,102.475L648.193,102.475z"/>
			</g>
		</g>
	</g>
	<g>
		<g>
			<path fill="#FFFFFF" d="M695.158,516.248c-33.022-32.641-81.463-44.831-126.006-31.682
				c-44.951,13.27-79.146,52.144-87.821,97.973c-7.721,40.788,5.853,83.221,34.917,112.629c0.957,0.969,2.576,0.959,3.535,0
				c32.397-32.398,64.795-64.798,97.192-97.197c26.061-26.062,52.122-52.125,78.183-78.188c2.282-2.281-1.254-5.817-3.535-3.535
				c-32.397,32.398-64.795,64.798-97.192,97.197c-26.061,26.062-52.122,52.125-78.183,78.188c1.179,0,2.356,0,3.535,0
				c-34.21-34.615-44.619-86.387-26.728-131.604c18.158-45.892,64.403-75.83,113.333-75.83c31.896,0,62.64,13.252,85.234,35.585
				C693.917,522.051,697.454,518.517,695.158,516.248z"/>
		</g>
	</g>
	<g>
		<g>
			<path fill="#FFFFFF" d="M603.934,607.475c6.567,6.567,13.135,13.135,19.703,19.701c2.281,2.282,5.817-1.254,3.535-3.535
				c-6.567-6.567-13.135-13.135-19.703-19.701C605.188,601.657,601.651,605.193,603.934,607.475L603.934,607.475z"/>
		</g>
	</g>
	<g>
		<g>
			<path fill="#FFFFFF" d="M623.637,656.242c9.421,8.784,23.18,8.784,32.601,0c9.415-8.778,8.326-23.676,0-32.602
				c-8.781-9.413-23.672-8.325-32.601,0C614.222,632.418,615.318,647.314,623.637,656.242c2.202,2.363,5.73-1.18,3.535-3.535
				c-6.896-7.4-6.898-18.132,0-25.531c6.896-7.396,18.521-6.534,25.53,0c7.396,6.897,6.535,18.521,0,25.531
				c-6.896,7.396-18.522,6.533-25.53,0C624.817,650.512,621.273,654.039,623.637,656.242z"/>
		</g>
	</g>
	<g>
		<g>
			<path fill="#FFFFFF" d="M639.938,690.855c28.029-0.398,50.517-22.882,50.915-50.912c0.046-3.226-4.954-3.222-5,0
				c-0.359,25.3-20.615,45.553-45.915,45.912C636.717,685.901,636.713,690.901,639.938,690.855L639.938,690.855z"/>
		</g>
	</g>
	<g>
		<g>
			<path fill="#FFFFFF" d="M639.938,716.662c42.092-0.392,76.33-34.627,76.725-76.719c0.03-3.226-4.97-3.223-5,0
				c-0.369,39.371-32.354,71.353-71.725,71.719C636.716,711.692,636.713,716.692,639.938,716.662L639.938,716.662z"/>
		</g>
	</g>
	<g>
		<g>
			<path fill="#FFFFFF" d="M534.318,501.717c-6.773-6.771-13.546-13.541-20.319-20.311c-2.282-2.281-5.817,1.254-3.535,3.535
				c6.772,6.771,13.546,13.541,20.319,20.311C533.065,507.533,536.601,503.998,534.318,501.717L534.318,501.717z"/>
		</g>
	</g>
	<g>
		<g>
			<path fill="#FFFFFF" d="M505.249,530.787c-6.771-6.775-13.544-13.55-20.315-20.324c-2.281-2.282-5.816,1.253-3.535,3.535
				c6.771,6.775,13.543,13.55,20.315,20.324C503.995,536.604,507.53,533.069,505.249,530.787L505.249,530.787z"/>
		</g>
	</g>
</g>
</svg>
